<svg xmlns="http://www.w3.org/2000/svg" viewBox="0 0 627.35 581.12"><title>test</title><path fill="#ffc214" d="M0 0h627.35v581.12H0z"/><path d="M358.17 594.3l-60.61-150.07a48.27 48.27 0 0 0-21.93-87.72l7.94-72.71a48.18 48.18 0 0 0 0-96.36 47.81 47.81 0 0 0-34.88 15l-98.26-66.32a46.83 46.83 0 0 0 4.14-19.68 48.18 48.18 0 1 0-96.36 0 50.28 50.28 0 0 0 4.14 19.68l-98.08 66.14a48.54 48.54 0 0 0-34.89-15 48.19 48.19 0 0 0-48.18 48.16 48.2 48.2 0 0 0 48.18 48.18l8 72.7a48.14 48.14 0 0 0-42.83 48 48.21 48.21 0 0 0 20.9 39.7l-60.62 150.07a5.16 5.16 0 0 0 .52 4.49 4.61 4.61 0 0 0 4 2.07h53a4.82 4.82 0 0 0 4.65-3.57l35.57-145.4a49.75 49.75 0 0 0 27.12-16.06l87.2 67.69a49 49 0 0 0-8.46 27.29A48.12 48.12 0 0 0 71 563l-4.84 32.47a4.51 4.51 0 0 0 1.21 3.8A4.9 4.9 0 0 0 71 601h70.8a4.33 4.33 0 0 0 3.63-1.73 5.1 5.1 0 0 0 1.21-3.8l-4.49-32.29a48 48 0 0 0 12.43-32.47 49 49 0 0 0-8.46-27.28l87.21-67.87a47.74 47.74 0 0 0 27.11 16.06l35.4 145.58a4.64 4.64 0 0 0 4.66 3.62h53a5.08 5.08 0 0 0 4-2.07 4.73 4.73 0 0 0 .69-4.49zM228.66 379.82L151.12 342a45.89 45.89 0 0 0 2.93-10.53l1.21-.87 74.26 48.18a4.3 4.3 0 0 0-.86 1zm-122.44 23.49a38.69 38.69 0 1 1 38.68-38.7 38.74 38.74 0 0 1-38.68 38.7zm-159.39-46.8l-8.12-73.57a47.9 47.9 0 0 0 28-17.1l82.38 58.72L-22.75 371a47.76 47.76 0 0 0-30.39-14.5zm111.38-37.09L-28 257.9a16 16 0 0 0 1.38-2.9l91.22 44.69a48.09 48.09 0 0 0-6.39 19.73zm-74.95 59.4l74.26-48.18 1 .69A46.84 46.84 0 0 0 61.45 342L-16 379.82c-.17-.35-.51-.69-.69-1zm84.45-54.74a38.68 38.68 0 1 1 76 10 40.17 40.17 0 0 0-7.25-7.08 4.71 4.71 0 0 0 .52-2.08 30.08 30.08 0 0 0-8.64-21.06 4.68 4.68 0 0 0-6.62-.11 1.14 1.14 0 0 0-.11.11 5 5 0 0 0 0 6.9 21.16 21.16 0 0 1 5.52 10.24 48.08 48.08 0 0 0-57.85 12.9 26.57 26.57 0 0 1-1.55-9.84zm172.86-66.14l-86.34 61.48a47.4 47.4 0 0 0-6.57-20L239 255c.51 1 1 1.9 1.55 2.94zm-5.18 113.29l-71.84-46.46 82.37-58.71a48.79 48.79 0 0 0 28 17.09l-8.12 73.57a46.12 46.12 0 0 0-30.39 14.51zm48-174.08a38.69 38.69 0 1 1-38.68 38.7 38.74 38.74 0 0 1 38.68-38.69zm-40.93 12.78a48.41 48.41 0 0 0-6.39 35.75L142 291.58A48.51 48.51 0 0 0 111.27 276V164.48a47.71 47.71 0 0 0 34.36-20zM106.22 78a38.68 38.68 0 1 1-38.68 38.68A38.73 38.73 0 0 1 106.22 78zM67 144.62a48.63 48.63 0 0 0 34.36 20V276a48.7 48.7 0 0 0-31.06 15.75l-93.94-46.11a48 48 0 0 0 1-10A48.33 48.33 0 0 0-30 209.89zm-176.32 91a38.73 38.73 0 0 1 38.68-38.68 38.74 38.74 0 0 1 38.71 38.68 38.74 38.74 0 0 1-38.69 38.69 38.74 38.74 0 0 1-38.68-38.69zm17.62 355.57h-42.14l57.5-142.29a47.33 47.33 0 0 0 18.48 3.79zm34.19-148a38.74 38.74 0 0 1-38.68-38.69 38.72 38.72 0 0 1 38.68-38.68 38.73 38.73 0 0 1 38.68 38.68 38.84 38.84 0 0 1-38.68 38.69zm45.59-54.57l71.17-34.7a44.34 44.34 0 0 0-1.25 10.7 48.44 48.44 0 0 0 33.33 45.94l-10.84 79.26a39.28 39.28 0 0 0-7.95 6.18l-87.9-68.39a48 48 0 0 0 5.88-23.14 44.62 44.62 0 0 0-2.42-15.88zm79.63 142.13a37.94 37.94 0 0 1 6.39-21.24l3.45 2.59-5.18 37.32a38.79 38.79 0 0 1-4.66-18.65zm8.81 60.44L101 412.42c1.72.17 3.62.34 5.35.34a53.17 53.17 0 0 0 5.35-.34l24.53 178.73zm68.38-60.44a39 39 0 0 1-4.83 18.67l-5.19-37.3 3.46-2.59a36.39 36.39 0 0 1 6.56 21.24zm-5-34.71a57.8 57.8 0 0 0-7.9-6.22l-10.88-79.26a48.29 48.29 0 0 0 33.28-45.94 44.3 44.3 0 0 0-1.21-10.7l71.32 34.71a48.53 48.53 0 0 0-2.76 15.88 47.39 47.39 0 0 0 5.87 23.14zm91.53-91.53a38.68 38.68 0 1 1 38.68 38.69 38.68 38.68 0 0 1-38.68-38.69zm72.87 186.68l-33.84-138.5a45.69 45.69 0 0 0 18.3-3.79l57.51 142.29z" fill="#fff"/><path d="M305.33 237.52a4.84 4.84 0 0 0 9.67.48 3.23 3.23 0 0 0 0-.44 30.12 30.12 0 0 0-8.63-21.1 4.71 4.71 0 0 0-6.65-.09l-.09.09a4.89 4.89 0 0 0 0 6.9 20.11 20.11 0 0 1 5.7 14.16zM291.34 213a6.39 6.39 0 1 1-6.39-6.39 6.61 6.61 0 0 1 6.39 6.39zM291.86 404.69a4.84 4.84 0 0 0 9.67 0 30.13 30.13 0 0 0-8.63-21.07 4.89 4.89 0 0 0-7.19 6.63 3.7 3.7 0 0 0 .28.28 19.84 19.84 0 0 1 5.87 14.16zM277.87 380.17a6.39 6.39 0 1 1-6.39-6.39 6.48 6.48 0 0 1 6.39 6.39zM127.11 117.33a5 5 0 0 0 4.84 4.84 4.83 4.83 0 0 0 4.83-4.83 30 30 0 0 0-8.63-21.07 4.71 4.71 0 0 0-6.65-.09l-.09.09a4.92 4.92 0 0 0 0 6.91 20.43 20.43 0 0 1 5.7 14.15zM113.13 93a6.39 6.39 0 1 1-6.39-6.39 6.38 6.38 0 0 1 6.39 6.39zM136.78 365.31a30 30 0 0 0-8.63-21.06 4.71 4.71 0 0 0-6.65-.09l-.09.09a4.91 4.91 0 0 0 0 6.9 19.85 19.85 0 0 1 5.88 14.16 4.93 4.93 0 0 0 4.83 4.84 4.81 4.81 0 0 0 4.66-4.84zM113.13 341a6.39 6.39 0 1 1-6.4-6.38 6.27 6.27 0 0 1 6.39 6.15zM113.13 300.56a6.39 6.39 0 1 1-6.39-6.39 6.39 6.39 0 0 1 6.39 6.39z" fill="#fff"/><path d="M469.38 467.91c8.72 14.23 20.09 24.73 40.18 24.73 16.88 0 27.66-8.43 27.66-20.09 0-14-11.07-18.92-29.66-27.05l-10.16-4.36c-29.4-12.53-48.93-28.22-48.93-61.39 0-30.51 23.28-53.82 59.66-53.82 25.91 0 44.54 9 58 32.62l-31.72 20.33c-7-12.52-14.52-17.46-26.23-17.46-11.92 0-19.49 7.57-19.49 17.46 0 12.2 7.57 17.17 25 24.74l10.17 4.38c34.62 14.83 54.14 30 54.14 64 0 36.68-28.81 56.77-67.51 56.77-37.83 0-62.27-18-74.22-41.69zm-143.93 3.57c6.4 11.35 12.2 20.95 26.22 20.95 13.39 0 21.83-5.24 21.83-25.6V328.26h40.74v139.08c0 42.18-24.73 61.39-60.83 61.39-32.62 0-51.51-16.89-61.12-37.21z"/></svg>