<svg width="41" height="18" viewBox="0 0 41 18" fill="none" xmlns="http://www.w3.org/2000/svg">
<path d="M1.71741 1.7893C1.82519 0.771987 2.68328 0 3.70628 0H38.7769C39.9649 0 40.8909 1.02938 40.7658 2.21071L39.2826 16.2107C39.1748 17.228 38.3167 18 37.2937 18H2.22308C1.03514 18 0.109056 16.9706 0.234209 15.7893L1.71741 1.7893Z" fill="url(#paint0_linear)"/>
<path d="M6.38394 13C6.29594 13 6.22794 12.972 6.17994 12.916C6.13994 12.86 6.12794 12.788 6.14394 12.7L7.79994 4.89998C7.81594 4.81198 7.85994 4.73998 7.93194 4.68398C8.00394 4.62798 8.07994 4.59998 8.15994 4.59998H9.70794C9.79594 4.59998 9.86394 4.62798 9.91194 4.68398C9.95194 4.72398 9.97194 4.77598 9.97194 4.83998C9.97194 4.85598 9.96794 4.87598 9.95994 4.89998L9.34794 7.79198H12.2999L12.9119 4.89998C12.9279 4.81198 12.9719 4.73998 13.0439 4.68398C13.1159 4.62798 13.1919 4.59998 13.2719 4.59998H14.8199C14.9079 4.59998 14.9759 4.62798 15.0239 4.68398C15.0639 4.72398 15.0839 4.77598 15.0839 4.83998C15.0839 4.85598 15.0799 4.87598 15.0719 4.89998L13.4039 12.7C13.3879 12.788 13.3439 12.86 13.2719 12.916C13.2079 12.972 13.1319 13 13.0439 13H11.4959C11.4079 13 11.3399 12.972 11.2919 12.916C11.2519 12.852 11.2399 12.78 11.2559 12.7L11.8919 9.71198H8.93994L8.30394 12.7C8.28794 12.788 8.24394 12.86 8.17194 12.916C8.09994 12.972 8.01994 13 7.93194 13H6.38394Z" fill="white"/>
<path d="M18.6133 13.12C17.6613 13.12 16.8813 12.896 16.2733 12.448C15.6733 11.992 15.3733 11.344 15.3733 10.504C15.3733 10.328 15.3933 10.112 15.4333 9.85598C15.5373 9.27998 15.6853 8.58798 15.8773 7.77998C16.4213 5.57998 17.8253 4.47998 20.0893 4.47998C20.7053 4.47998 21.2573 4.58398 21.7453 4.79198C22.2333 4.99198 22.6174 5.29598 22.8974 5.70398C23.1774 6.10398 23.3173 6.58398 23.3173 7.14398C23.3173 7.31198 23.2973 7.52398 23.2573 7.77998C23.1373 8.49198 22.9934 9.18398 22.8253 9.85598C22.5454 10.952 22.0613 11.772 21.3733 12.316C20.6853 12.852 19.7653 13.12 18.6133 13.12ZM18.7813 11.392C19.2293 11.392 19.6093 11.26 19.9213 10.996C20.2413 10.732 20.4693 10.328 20.6053 9.78398C20.7893 9.03198 20.9293 8.37598 21.0253 7.81598C21.0573 7.64798 21.0733 7.47598 21.0733 7.29998C21.0733 6.57198 20.6933 6.20798 19.9333 6.20798C19.4853 6.20798 19.1013 6.33998 18.7813 6.60398C18.4693 6.86798 18.2453 7.27198 18.1093 7.81598C17.9653 8.35198 17.8213 9.00798 17.6773 9.78398C17.6453 9.94398 17.6293 10.112 17.6293 10.288C17.6293 11.024 18.0133 11.392 18.7813 11.392Z" fill="white"/>
<path d="M25.5285 13C25.4405 13 25.3725 12.972 25.3245 12.916C25.2765 12.852 25.2605 12.78 25.2765 12.7L26.6085 6.48398H24.4725C24.3845 6.48398 24.3165 6.45598 24.2685 6.39998C24.2285 6.33598 24.2165 6.26398 24.2325 6.18398L24.5085 4.89998C24.5245 4.81198 24.5685 4.73998 24.6405 4.68398C24.7125 4.62798 24.7885 4.59998 24.8685 4.59998H31.3245C31.4125 4.59998 31.4805 4.62798 31.5285 4.68398C31.5605 4.73198 31.5765 4.77998 31.5765 4.82798C31.5765 4.85198 31.5725 4.87598 31.5645 4.89998L31.2885 6.18398C31.2725 6.27198 31.2285 6.34398 31.1565 6.39998C31.0925 6.45598 31.0165 6.48398 30.9285 6.48398H28.8045L27.4725 12.7C27.4565 12.788 27.4125 12.86 27.3405 12.916C27.2685 12.972 27.1925 13 27.1125 13H25.5285Z" fill="white"/>
<path d="M31.696 10.348C31.608 10.348 31.54 10.32 31.492 10.264C31.452 10.2 31.44 10.128 31.456 10.048L32.56 4.89998C32.576 4.81198 32.616 4.73998 32.68 4.68398C32.752 4.62798 32.832 4.59998 32.92 4.59998H34.3C34.388 4.59998 34.456 4.62798 34.504 4.68398C34.536 4.73198 34.552 4.77998 34.552 4.82798C34.552 4.85198 34.548 4.87598 34.54 4.89998L33.448 10.048C33.432 10.128 33.388 10.2 33.316 10.264C33.244 10.32 33.164 10.348 33.076 10.348H31.696ZM31.084 13C30.996 13 30.928 12.972 30.88 12.916C30.84 12.852 30.828 12.78 30.844 12.7L31.156 11.224C31.172 11.136 31.216 11.064 31.288 11.008C31.368 10.944 31.448 10.912 31.528 10.912H33.004C33.084 10.912 33.148 10.94 33.196 10.996C33.236 11.044 33.256 11.1 33.256 11.164C33.256 11.18 33.252 11.2 33.244 11.224L32.932 12.7C32.916 12.788 32.872 12.86 32.8 12.916C32.728 12.972 32.648 13 32.56 13H31.084Z" fill="white"/>
<defs>
<linearGradient id="paint0_linear" x1="20.5" y1="0" x2="20.5" y2="18" gradientUnits="userSpaceOnUse">
<stop stop-color="#FF0666"/>
<stop offset="1" stop-color="#B31A47"/>
</linearGradient>
</defs>
</svg>
