<svg width="43" height="36" viewBox="0 0 43 36" fill="none" xmlns="http://www.w3.org/2000/svg">
<path fill-rule="evenodd" clip-rule="evenodd" d="M32.2372 18.4846L31.2572 26.8497C31.2425 26.9723 31.1752 27.083 31.0715 27.151L17.8131 35.9301C17.6723 36.0233 17.4895 36.0233 17.3487 35.9301L4.09033 27.151C3.98665 27.083 3.91937 26.9723 3.90466 26.8497L2.92391 18.479C2.89729 18.2485 3.06262 18.0398 3.29309 18.0125C3.30921 18.0111 3.32535 18.0097 3.34146 18.0097L31.8197 18.0153C32.0516 18.0153 32.24 18.2037 32.24 18.4356C32.24 18.4524 32.2387 18.4685 32.2372 18.4846Z" fill="black"/>
<path fill-rule="evenodd" clip-rule="evenodd" d="M17.7898 0.0556928L31.9743 8.18825C32.1753 8.30313 32.2447 8.56023 32.1298 8.76198C32.0548 8.89228 31.9154 8.97285 31.7648 8.97285H3.39721C3.16463 8.97285 2.97688 8.7844 2.97688 8.55252C2.97688 8.40191 3.05746 8.2632 3.18776 8.18825L17.3723 0.0556928C17.5012 -0.0185643 17.6609 -0.0185643 17.7898 0.0556928Z" fill="black"/>
<path fill-rule="evenodd" clip-rule="evenodd" d="M0.420857 10.2339H34.7402C34.9728 10.2339 35.1606 10.4223 35.1606 10.6542C35.1606 10.6766 35.1591 10.6991 35.1556 10.7215L34.2401 16.3958C34.2071 16.599 34.032 16.7489 33.8253 16.7489H1.33576C1.1291 16.7489 0.953275 16.599 0.921051 16.3958L0.00545959 10.7215C-0.0316689 10.4917 0.124532 10.2759 0.353608 10.2395C0.376025 10.236 0.39844 10.2339 0.420857 10.2339Z" fill="black"/>
<path fill-rule="evenodd" clip-rule="evenodd" d="M9.22372 12.5905C10.8272 13.3779 12.215 13.8725 13.387 14.0735C13.0767 15.179 12.0448 15.9167 10.9442 15.7625C9.73718 15.593 8.90568 14.4133 9.08641 13.1285C9.11233 12.9401 9.15927 12.76 9.22372 12.5905Z" fill="white"/>
<path fill-rule="evenodd" clip-rule="evenodd" d="M25.8717 12.5905C25.9362 12.76 25.9824 12.9401 26.009 13.1285C26.1898 14.4133 25.3575 15.593 24.1505 15.7625C23.0507 15.9167 22.0188 15.179 21.7077 14.0735C22.8797 13.8725 24.2682 13.3779 25.8717 12.5905Z" fill="white"/>
<path fill-rule="evenodd" clip-rule="evenodd" d="M33.9033 8.99604H36.2494C36.4042 8.99604 36.5296 9.12143 36.5296 9.27625C36.5296 9.28816 36.5289 9.30077 36.5275 9.31268L36.3264 10.8399C36.3061 10.9933 36.414 11.1341 36.5674 11.1544C36.62 11.1614 36.6732 11.153 36.7215 11.1306L42.3293 8.54839C42.4702 8.48394 42.5318 8.31722 42.4667 8.17641C42.426 8.08814 42.342 8.02719 42.2453 8.01599L38.578 7.58376C38.4631 7.57045 38.3685 7.48778 38.3398 7.37639L37.4228 3.85829C37.3836 3.70908 37.2308 3.61871 37.0809 3.65794C37.0151 3.67545 36.9583 3.71539 36.9198 3.77213L33.6714 8.5582C33.5845 8.6864 33.6182 8.86084 33.7457 8.9477C33.7926 8.97923 33.8472 8.99604 33.9033 8.99604Z" fill="black"/>
</svg>
