<svg width="20" height="20" viewBox="0 0 20 20" fill="none" xmlns="http://www.w3.org/2000/svg">
<path fill-rule="evenodd" clip-rule="evenodd" d="M18.7013 13.2943L12.8635 3.3147C12.2774 2.29869 11.1851 1.66807 10.0037 1.66669C8.82226 1.66531 7.72952 2.29332 7.13616 3.31474L1.29621 13.298C0.690646 14.3163 0.676947 15.5921 1.2635 16.6327C1.85054 17.6741 2.94974 18.3222 4.14535 18.3319L15.8436 18.332C17.0516 18.3202 18.1487 17.6741 18.7357 16.6336C19.3219 15.5944 19.3088 14.3213 18.7013 13.2943ZM2.73175 14.1448L8.57602 4.15411C8.87199 3.64464 9.41481 3.33267 10.0018 3.33335C10.5887 3.33404 11.1313 3.6473 11.4224 4.15187L17.2648 14.1394C17.571 14.6571 17.5776 15.2944 17.284 15.8147C16.9901 16.3358 16.4406 16.6594 15.8354 16.6653L4.15212 16.6653C3.55995 16.6604 3.00937 16.3358 2.71537 15.8143C2.42171 15.2933 2.42857 14.6546 2.73175 14.1448ZM10.0003 14.9986C10.4607 14.9986 10.8339 14.6255 10.8339 14.1653C10.8339 13.7051 10.4607 13.332 10.0003 13.332C9.53991 13.332 9.16669 13.7051 9.16669 14.1653C9.16669 14.6255 9.53991 14.9986 10.0003 14.9986ZM10.8364 6.66531H9.16916V12.4986H10.8364V6.66531Z" fill="#D01150"/>
</svg>
